<?xml version="1.0" encoding="UTF-8"?>
<svg xmlns="http://www.w3.org/2000/svg" viewBox="0 0 24 24" fill="none" width="32" height="32">
    <defs>
        <linearGradient id="dropGradient" x1="0%" y1="0%" x2="100%" y2="100%">
            <stop offset="0%" style="stop-color:#3B82F6;stop-opacity:0.3"/>
            <stop offset="100%" style="stop-color:#3B82F6;stop-opacity:0.1"/>
        </linearGradient>
    </defs>
    <!-- Modern Lock Body -->
    <path stroke="#3B82F6" stroke-linecap="round" stroke-linejoin="round" stroke-width="1.5" d="M8 11V7a4 4 0 118 0v4"/>
    <path stroke="#3B82F6" stroke-linecap="round" stroke-linejoin="round" stroke-width="1.5" d="M6 11h12a2 2 0 012 2v6a2 2 0 01-2 2H6a2 2 0 01-2-2v-6a2 2 0 012-2z"/>
    <!-- Stylized Droplet -->
    <path fill="url(#dropGradient)" stroke="#3B82F6" stroke-linecap="round" stroke-linejoin="round" stroke-width="1.5" d="M12 4s-2.5 2.5-2.5 4.2c0 1.4 1.1 2.5 2.5 2.5s2.5-1.1 2.5-2.5C14.5 6.5 12 4 12 4z"/>
    <!-- Keyhole -->
    <path stroke="#3B82F6" stroke-linecap="round" stroke-linejoin="round" stroke-width="1.5" d="M12 14v3"/>
    <circle cx="12" cy="14" r="1" fill="#3B82F6"/>
</svg> 